<svg width="111" height="111" viewBox="0 0 111 111" fill="none" xmlns="http://www.w3.org/2000/svg">
<rect x="0.896545" y="0.793091" width="109.517" height="109.517" rx="21.9034" fill="white"/>
<path fill-rule="evenodd" clip-rule="evenodd" d="M22.8 55.5518C22.8 37.4064 37.5097 22.6966 55.6552 22.6966C73.8006 22.6966 88.5103 37.4064 88.5103 55.5518C88.5103 73.6972 73.8006 88.407 55.6552 88.407C37.5097 88.407 22.8 73.6972 22.8 55.5518ZM55.6552 28.1725C40.534 28.1725 28.2758 40.4306 28.2758 55.5518C28.2758 70.673 40.534 82.9311 55.6552 82.9311C70.7763 82.9311 83.0345 70.673 83.0345 55.5518C83.0345 40.4306 70.7763 28.1725 55.6552 28.1725Z" fill="#FF3B1B"/>
<path fill-rule="evenodd" clip-rule="evenodd" d="M51.8062 46.6899C49.2714 43.7618 44.9842 43.1029 41.6859 45.1401C37.4913 47.7309 36.671 53.4876 39.97 57.1467C47.1053 64.7618 55.5363 71.0493 64.8704 75.7163L72.2119 79.3871C73.5643 80.0633 74.1125 81.7079 73.4363 83.0604C72.7601 84.4128 71.1155 84.9611 69.763 84.2848L62.4215 80.6141C52.5 75.6533 43.5391 68.9688 35.9569 60.8723C35.9467 60.8614 35.9365 60.8504 35.9265 60.8393C30.3123 54.6444 31.6953 44.8746 38.8084 40.4813C43.5971 37.5235 49.6169 37.9218 53.942 41.2207C58.3841 37.95 64.5164 37.6946 69.2789 40.82C75.8601 45.1389 77.3933 54.187 72.5332 60.4079L66.0264 68.7367C65.0955 69.9283 63.3748 70.1396 62.1833 69.2087C60.9917 68.2777 60.7804 66.5571 61.7113 65.3655L68.2181 57.0368C71.093 53.3569 70.1975 47.9725 66.2745 45.3981C62.9722 43.231 58.5687 43.8109 55.9593 46.7541C54.9562 47.8856 53.2258 47.9896 52.0943 46.9865C51.9894 46.8935 51.8934 46.7943 51.8062 46.6899ZM46.0679 77.8957C46.732 79.2542 46.1689 80.8938 44.8104 81.5578L41.4494 83.2006C40.0909 83.8646 38.4513 83.3016 37.7873 81.9431C37.1233 80.5845 37.6863 78.9449 39.0448 78.2809L42.4058 76.6382C43.7643 75.9742 45.4039 76.5372 46.0679 77.8957Z" fill="#FF3B1B"/>
</svg>
